<svg width="76" height="16" viewBox="0 0 76 16" fill="none" xmlns="http://www.w3.org/2000/svg">
<g clip-path="url(#clip0_297_1990)">
<path d="M76.0001 4.84891C76.0001 4.99585 75.9674 5.14279 75.9183 5.2734C75.8692 5.40402 75.7874 5.5183 75.6893 5.61626C75.5911 5.71422 75.4766 5.79585 75.3458 5.84483C75.2149 5.89381 75.084 5.92646 74.9368 5.92646C74.7896 5.92646 74.6587 5.89381 74.5279 5.84483C74.397 5.79585 74.2825 5.71422 74.1843 5.61626C74.0862 5.5183 74.0044 5.40402 73.9553 5.2734C73.9063 5.14279 73.8735 4.99585 73.8735 4.84891C73.8735 4.70197 73.9063 4.55504 73.9553 4.42442C74.0044 4.29381 74.0862 4.17953 74.1843 4.08157C74.2825 3.98361 74.397 3.90197 74.5279 3.85299C74.6587 3.80402 74.7896 3.77136 74.9368 3.77136C75.084 3.77136 75.2313 3.80402 75.3458 3.85299C75.4766 3.90197 75.5911 3.98361 75.6893 4.08157C75.7874 4.17953 75.8692 4.29381 75.9183 4.42442C75.9674 4.57136 76.0001 4.70197 76.0001 4.84891ZM74.1353 4.84891C74.1353 4.9632 74.1516 5.07748 74.2007 5.17544C74.2498 5.2734 74.2988 5.35504 74.3643 5.43667C74.4297 5.5183 74.5279 5.56728 74.6097 5.61626C74.7078 5.66524 74.8059 5.68157 74.9205 5.68157C75.035 5.68157 75.1331 5.66524 75.2313 5.61626C75.3294 5.56728 75.4112 5.5183 75.4766 5.43667C75.5421 5.37136 75.6075 5.2734 75.6402 5.17544C75.6893 5.07748 75.7056 4.9632 75.7056 4.84891C75.7056 4.73463 75.6893 4.62034 75.6402 4.52238C75.5911 4.42442 75.5421 4.32646 75.4766 4.26116C75.4112 4.17953 75.313 4.13055 75.2313 4.08157C75.1331 4.03259 75.035 4.01626 74.9205 4.01626C74.8059 4.01626 74.7078 4.03259 74.6097 4.08157C74.5115 4.13055 74.4297 4.17953 74.3643 4.26116C74.2988 4.32646 74.2334 4.42442 74.2007 4.52238C74.168 4.63667 74.1353 4.73463 74.1353 4.84891ZM75.3621 4.66932C75.3621 4.73463 75.3458 4.78361 75.3294 4.81626C75.2967 4.84891 75.2803 4.88157 75.2476 4.91422C75.2149 4.94687 75.1658 4.9632 75.1331 4.97953L75.4439 5.42034H75.1495L74.9041 5.04483H74.8059V5.42034H74.5606V4.31014H75.0022C75.0513 4.31014 75.1004 4.32646 75.1495 4.34279C75.1985 4.35912 75.2313 4.39177 75.2803 4.42442C75.3131 4.45708 75.3458 4.48973 75.3621 4.53871C75.3621 4.57136 75.3621 4.62034 75.3621 4.66932ZM74.9859 4.79993C75.035 4.79993 75.0677 4.78361 75.1004 4.75095C75.1331 4.7183 75.1495 4.68565 75.1495 4.65299C75.1495 4.62034 75.1331 4.58769 75.1004 4.55504C75.0677 4.52238 75.035 4.50606 74.9859 4.50606H74.8059V4.76728L74.9859 4.79993Z" fill="#0C6BF4"/>
<path d="M27.9559 14.8408C27.9723 14.8408 27.9887 14.8408 28.005 14.8408C28.0541 14.8408 28.0868 14.8571 28.1359 14.8898C28.3485 15.0531 28.5776 15.2163 28.8229 15.3469C29.1174 15.5265 29.4936 15.6735 29.9026 15.8041C30.3279 15.9347 30.8023 16 31.3257 16C32.0782 16 32.8143 15.8367 33.485 15.5429C34.172 15.2327 34.7773 14.8082 35.3008 14.2531C35.8242 13.698 36.2332 13.0449 36.544 12.2939C36.8548 11.5429 37.002 10.7102 37.002 9.81224C37.002 8.91429 36.8548 8.08163 36.544 7.33061C36.2332 6.57959 35.8242 5.9102 35.3008 5.37143C34.7773 4.81633 34.172 4.39184 33.485 4.08163C32.798 3.77143 32.0782 3.62449 31.3257 3.62449C30.8186 3.62449 30.3606 3.6898 29.9844 3.82041C29.6081 3.95102 29.281 4.08163 28.9865 4.22857C28.7575 4.35918 28.5285 4.50612 28.3322 4.65306L28.2013 4.75102V0.277551C28.2013 0.130612 28.0868 0 27.9232 0H25.3714C25.2241 0 25.0933 0.114286 25.0933 0.277551V15.5918C25.0933 15.7388 25.2078 15.8694 25.3714 15.8694H27.2035C27.318 15.8694 27.4161 15.8041 27.4488 15.7061L27.776 14.9551C27.8414 14.8898 27.8905 14.8571 27.9559 14.8408ZM28.8066 7.4449C29.3791 6.85714 30.0825 6.56327 30.9331 6.56327C31.7674 6.56327 32.4872 6.85714 33.0597 7.4449C33.6322 8.03265 33.9103 8.81633 33.9103 9.79592C33.9103 10.7755 33.6159 11.5755 33.0597 12.1469C32.4872 12.7347 31.7838 13.0286 30.9331 13.0286C30.0825 13.0286 29.3791 12.7347 28.8066 12.1469C28.234 11.5592 27.9559 10.7755 27.9559 9.79592C27.9559 8.81633 28.234 8.03265 28.8066 7.4449Z" fill="#0C6BF4"/>
<path d="M48.8943 6.49798C48.5671 5.94288 48.1418 5.45308 47.6511 5.02859C47.1603 4.6041 46.5878 4.26125 45.9662 4.00002C45.3282 3.7388 44.6575 3.62451 43.9378 3.62451C43.1199 3.62451 42.3347 3.78778 41.5986 4.11431C40.8788 4.44084 40.2245 4.88165 39.6683 5.43676C39.1121 5.99186 38.6704 6.66125 38.3433 7.39594C38.0161 8.13063 37.8525 8.94696 37.8525 9.81227C37.8525 10.6776 38.0161 11.4776 38.3433 12.2286C38.6704 12.9633 39.1121 13.6327 39.6683 14.1878C40.2245 14.7429 40.8624 15.2 41.5986 15.5102C42.3183 15.8368 43.1035 16 43.9378 16C44.6575 16 45.3446 15.8694 45.9662 15.6245C46.5878 15.3796 47.1603 15.0204 47.6511 14.5959C48.1418 14.1714 48.5508 13.6653 48.8943 13.1266C49.1724 12.6694 49.385 12.1959 49.5323 11.7061C49.565 11.6245 49.5486 11.5429 49.4832 11.4612C49.4341 11.3959 49.3523 11.347 49.2705 11.347H46.7187C46.6205 11.347 46.5224 11.4123 46.4733 11.5102C46.3424 11.7715 46.1788 12.0163 45.9662 12.2286C45.7535 12.4408 45.4918 12.6204 45.1646 12.8C44.8375 12.9633 44.4285 13.0612 43.9541 13.0612C43.1035 13.0612 42.4001 12.7674 41.8276 12.1796C41.255 11.5919 40.977 10.8082 40.977 9.82859C40.977 8.849 41.2714 8.049 41.8276 7.47757C42.4001 6.88982 43.1035 6.59594 43.9541 6.59594C44.4285 6.59594 44.8375 6.6939 45.1646 6.87349C45.4918 7.05308 45.7699 7.249 45.9662 7.46125C46.1788 7.67349 46.3424 7.90206 46.4733 8.16329C46.5224 8.26125 46.6205 8.31023 46.7187 8.31023H49.2869C49.3687 8.31023 49.4505 8.27757 49.4996 8.19594C49.5486 8.13063 49.565 8.03267 49.5486 7.95104C49.385 7.42859 49.1724 6.95512 48.8943 6.49798Z" fill="#0C6BF4"/>
<path d="M61.7522 7.28165C61.4414 6.51431 61.0161 5.86125 60.4926 5.32247C59.9692 4.78369 59.3476 4.35921 58.6442 4.06533C57.9408 3.77145 57.1883 3.62451 56.4031 3.62451C55.5852 3.62451 54.8 3.78778 54.0639 4.11431C53.3441 4.44084 52.6898 4.88165 52.1336 5.43676C51.5774 5.99186 51.1358 6.66125 50.8086 7.39594C50.4815 8.13063 50.3179 8.94696 50.3179 9.81227C50.3179 10.6776 50.4815 11.4776 50.8086 12.2286C51.1358 12.9633 51.5774 13.6327 52.1336 14.1878C52.6898 14.7429 53.3278 15.2 54.0639 15.5102C54.7836 15.8368 55.5688 16 56.4031 16C57.0901 16 57.7281 15.8857 58.317 15.6572C58.9059 15.4286 59.4294 15.1347 59.9037 14.7755C60.3618 14.4163 60.7707 14.0082 61.0979 13.551C61.3433 13.2082 61.5396 12.849 61.7031 12.5061C61.7359 12.4245 61.7359 12.3266 61.6868 12.2612C61.6377 12.1796 61.5559 12.1306 61.4578 12.1306H58.7587C58.6769 12.1306 58.6115 12.1633 58.5624 12.2286C58.4315 12.3755 58.2843 12.4898 58.1207 12.6041C57.9244 12.7184 57.6954 12.8327 57.4337 12.9143C57.1719 12.9959 56.8284 13.0449 56.4358 13.0449C55.667 13.0449 55.0454 12.849 54.6037 12.4572C54.1947 12.098 53.9167 11.6572 53.7694 11.1347L53.7367 11.0368H61.8994C62.0303 11.0368 62.1448 10.9388 62.1612 10.8245C62.1939 10.6286 62.243 10.3021 62.243 9.82859C62.2102 8.89798 62.0467 8.049 61.7522 7.28165ZM59.1513 8.76737C59.1186 8.81635 59.0531 8.849 58.9877 8.849H53.8185C53.7531 8.849 53.6876 8.81635 53.6549 8.76737C53.6222 8.71839 53.6059 8.65308 53.6222 8.58778C53.7858 8.06533 54.0802 7.60818 54.4892 7.23267C54.9799 6.79186 55.6179 6.56329 56.3867 6.56329C57.1556 6.56329 57.7935 6.79186 58.2843 7.23267C58.6932 7.60818 58.9877 8.06533 59.1513 8.58778C59.184 8.65308 59.184 8.71839 59.1513 8.76737Z" fill="#0C6BF4"/>
<path d="M8.53896 15.8367H11.2053C11.3526 15.8367 11.4834 15.7225 11.4834 15.5592V9.87756C11.4834 8.14695 10.9272 6.57961 9.94576 5.4694C8.89884 4.31022 7.44296 3.70614 5.72536 3.70614C2.24107 3.68981 0 6.12246 0 9.87756V15.5592C0 15.7061 0.114507 15.8367 0.278089 15.8367H2.94447C3.09169 15.8367 3.22256 15.7225 3.22256 15.5592V10.1061C3.22256 7.78777 3.99139 6.7592 5.72536 6.7592C7.47568 6.7592 8.29359 7.82042 8.29359 10.1061V15.5592C8.26087 15.7061 8.39174 15.8367 8.53896 15.8367Z" fill="#0C6BF4"/>
<path d="M23.9322 4.08163C23.9322 3.93469 23.8176 3.80408 23.6541 3.80408H20.9877C20.8405 3.80408 20.7096 3.91836 20.7096 4.08163V9.53469C20.7096 11.8531 19.9408 12.8816 18.2068 12.8816C16.4565 12.8816 15.6386 11.8204 15.6386 9.53469V4.08163C15.6386 3.93469 15.5241 3.80408 15.3605 3.80408H12.7268C12.5796 3.80408 12.4487 3.91836 12.4487 4.08163V9.76326C12.4487 11.5102 13.0049 13.0775 14.0028 14.1714C15.0497 15.3306 16.5056 15.9347 18.2232 15.9347C21.6911 15.9347 23.9322 13.502 23.9322 9.74694V4.08163Z" fill="#0C6BF4"/>
<path fill-rule="evenodd" clip-rule="evenodd" d="M71.4689 4.11382C72.205 4.42402 72.843 4.88117 73.3992 5.43627C73.939 5.99137 74.397 6.66076 74.7242 7.39545C75.0513 8.14647 75.2149 8.9628 75.2149 9.81178C75.2149 10.6771 75.0513 11.4934 74.7242 12.2281C74.397 12.9628 73.9553 13.6322 73.3992 14.1873C72.843 14.7424 72.205 15.1832 71.4689 15.5097C70.7328 15.8363 69.9476 15.9995 69.1297 15.9995C68.2954 15.9995 67.5102 15.8363 66.7905 15.5097C66.0543 15.1995 65.4164 14.7424 64.8602 14.1873C64.304 13.6322 63.8623 12.9628 63.5352 12.2281C63.208 11.4771 63.0444 10.6608 63.0444 9.81178C63.0444 8.94647 63.208 8.13015 63.5352 7.39545C63.8623 6.66076 64.304 5.99137 64.8602 5.43627C65.4164 4.88117 66.0707 4.44035 66.7905 4.11382C67.5266 3.78729 68.3118 3.62402 69.1297 3.62402C69.9476 3.62402 70.7328 3.78729 71.4689 4.11382ZM66.774 11.9188H71.5015C72.1395 11.9188 72.6793 11.3801 72.6793 10.7597C72.6793 10.1719 72.2376 9.6821 71.6651 9.60047V9.58414C71.6651 9.02904 71.207 8.5719 70.6509 8.5719C70.3237 7.7719 69.5385 7.2168 68.6224 7.2168C67.4119 7.2168 66.4305 8.19639 66.4305 9.40455C66.4305 9.4372 66.4345 9.47394 66.4386 9.51067C66.4427 9.54741 66.4468 9.58414 66.4468 9.6168C65.9561 9.74741 65.5962 10.2046 65.5962 10.7433C65.5962 11.3964 66.1197 11.9188 66.774 11.9188Z" fill="#0C6BF4"/>
</g>
<defs>
<clipPath id="clip0_297_1990">
<rect width="76" height="16" fill="white"/>
</clipPath>
</defs>
</svg>
